<?xml version="1.0" encoding="utf-8"?>
<!-- Generator: Adobe Illustrator 17.0.0, SVG Export Plug-In . SVG Version: 6.00 Build 0)  -->
<!DOCTYPE svg PUBLIC "-//W3C//DTD SVG 1.1//EN" "http://www.w3.org/Graphics/SVG/1.1/DTD/svg11.dtd">
<svg version="1.1" id="Layer_1" xmlns="http://www.w3.org/2000/svg" xmlns:xlink="http://www.w3.org/1999/xlink" x="0px" y="0px"
	 width="25px" height="25px" viewBox="0 0 25 25" enable-background="new 0 0 25 25" xml:space="preserve">
<path fill="#afc5cf" d="M12.516,10.009l2.408,2.32c0.194,0.188,0.512,0.188,0.706,0l0.708-0.681c0.194-0.188,0.194-0.493,0-0.681
	L12.87,7.625c-0.197-0.188-0.512-0.188-0.708,0l-3.5,3.372c-0.194,0.188-0.194,0.493,0,0.681l0.706,0.681
	c0.197,0.188,0.512,0.188,0.708,0L12.516,10.009z"/>
<path fill="#afc5cf" d="M10.076,17.375l2.44-2.35l2.408,2.32c0.194,0.188,0.512,0.188,0.706,0l0.708-0.681
	c0.194-0.188,0.194-0.493,0-0.681l-3.469-3.342c-0.197-0.188-0.512-0.188-0.708,0l-3.5,3.372c-0.194,0.188-0.194,0.493,0,0.681
	l0.706,0.681C9.564,17.563,9.879,17.563,10.076,17.375z"/>
</svg>
